<svg id="Capa_1" enable-background="new 0 0 512.002 512.002" height="120" viewBox="0 0 512.002 512.002" width="120" xmlns="http://www.w3.org/2000/svg"><g><path d="m444.501 302.165h-30v90h75l-15-60c0-16.569-13.432-30-30-30z" fill="#ffe2a8"/><path d="m414.501 302.165h-45l-45 90h120v-60c0-16.569-13.432-30-30-30z" fill="#fff0d3"/><path d="m489.501 377.165v30h-45l-30-16.875 30-13.125z" fill="#c27749"/><path d="m444.501 377.165v30h-75l-46-30z" fill="#e18f4e"/><path d="m7.501 407.165v97.335h30v-117.335z" fill="#ffa754"/><path d="m279.501 302.165 30 60-30 45-30-.001-30-45 30-59.999z" fill="#ff4996"/><path d="m52.501 302.165c-24.853 0-45 20.147-45 45v60h242v-105z" fill="#ff6b8a"/><path d="m187.501 262.5v-70c0-11.046-8.954-20-20-20h-30v135l35 45h30v-50.335c0-15.211-5.671-29.09-15-39.665z" fill="#ffe2a8"/><path d="m157.501 262.5v-70c0-11.046-8.954-20-20-20h-20c-11.046 0-20 8.954-20 20v70c-9.329 10.575-15 24.454-15 39.665v50.335h90v-50.335c0-15.211-5.671-29.089-15-39.665z" fill="#fff0d3"/><path d="m369.501 302.165v105h-30l-32-52.5 32-52.5z" fill="#ffcb63"/><path d="m279.501 302.165h60v105h-60z" fill="#ffe2a8"/><path d="m474.501 207.5v297h30v-297c0-8.284-6.716-15-15-15s-15 6.716-15 15z" fill="#e18f4e"/><path d="m422.001 227.165h-30v44.999h30c12.42 0 22.5-10.08 22.5-22.5s-10.08-22.499-22.5-22.499z" fill="#ffe2a8"/><path d="m317.001 249.665c0 12.426 10.073 22.5 22.5 22.5h52.5c12.426 0 22.5-10.073 22.5-22.5 0-12.426-10.073-22.5-22.5-22.5h-52.5c-12.426 0-22.5 10.074-22.5 22.5z" fill="#fff0d3"/><path d="m142.501 52.5v90c24.853 0 45-20.147 45-45s-20.147-45-45-45z" fill="#60312c"/><path d="m157.501 97.5c0-24.853-6.716-45-15-45-24.853 0-45 20.147-45 45s20.147 45 45 45c8.284 0 15-20.147 15-45z" fill="#85453d"/><path d="m170.001 22.5c0-8.284-6.716-15-15-15-5.22 0-9.813 2.67-12.5 6.715-2.687-4.045-7.28-6.715-12.5-6.715-8.284 0-15 6.716-15 15-8.284 0-15 6.716-15 15s6.716 15 15 15h55c8.284 0 15-6.716 15-15s-6.716-15-15-15z" fill="#40211d"/><path d="m489.501 185c-12.407 0-22.5 10.093-22.5 22.5v94.685c-6.272-4.719-14.064-7.52-22.5-7.52h-234.932c-1.426-12.756-6.452-24.868-14.568-34.906v-60.045c50.271-3.842 90-45.976 90-97.214 0-4.142-3.358-7.5-7.5-7.5s-7.5 3.358-7.5 7.5c0 43.344-33.605 78.961-76.125 82.229-3.362-11.39-13.91-19.729-26.375-19.729h-50c-15.164 0-27.5 12.336-27.5 27.5v67.259c-8.116 10.037-13.142 22.15-14.568 34.906h-22.932c-28.949 0-52.5 23.551-52.5 52.5v157.335c0 4.142 3.358 7.5 7.5 7.5h30c4.142 0 7.5-3.358 7.5-7.5v-89.835h60v74.43l-24.872 8.291c-3.93 1.31-6.053 5.557-4.744 9.487 1.048 3.143 3.974 5.13 7.114 5.13.786 0 1.586-.125 2.373-.387l30-10c3.063-1.021 5.128-3.887 5.128-7.115v-79.835h45v79.834c0 3.228 2.066 6.094 5.128 7.115l30 10c.787.262 1.586.387 2.373.387 3.14 0 6.066-1.988 7.114-5.13 1.31-3.93-.814-8.177-4.744-9.487l-24.872-8.291v-74.43h287v89.836c0 4.142 3.358 7.5 7.5 7.5h30c4.142 0 7.5-3.358 7.5-7.5v-297c.002-12.407-10.091-22.5-22.498-22.5zm-22.5 147.165v37.5h-90v-60h67.5c12.407 0 22.5 10.093 22.5 22.5zm-105 67.5h-75v-90h75zm-272-97.5c0-12.785 4.661-25.109 13.125-34.704 1.208-1.37 1.875-3.134 1.875-4.961v-70c0-6.893 5.607-12.5 12.5-12.5h50c6.893 0 12.5 5.607 12.5 12.5v70c0 1.827.667 3.591 1.875 4.961 8.463 9.594 13.125 21.919 13.125 34.704v42.835h-105zm-60 194.835h-15v-82.335h15zm-15-97.335v-52.5c0-20.678 16.822-37.5 37.5-37.5h22.5v42.835c0 4.142 3.358 7.5 7.5 7.5h22.5v39.665zm105 0v-39.665h45v39.665zm60-39.665h22.5c4.142 0 7.5-3.358 7.5-7.5v-42.835h62v90h-92zm197 39.665v-15h90v15zm120 97.335h-15v-289.5c0-4.136 3.364-7.5 7.5-7.5s7.5 3.364 7.5 7.5z"/><path d="m339.501 279.665h82.5c16.542 0 30-13.458 30-30s-13.458-30-30-30h-82.5c-16.542 0-30 13.458-30 30s13.458 30 30 30zm0-45h82.5c8.271 0 15 6.729 15 15s-6.729 15-15 15h-82.5c-8.271 0-15-6.729-15-15s6.729-15 15-15z"/><path d="m90.001 97.5c0 28.949 23.551 52.5 52.5 52.5s52.5-23.551 52.5-52.5c0-15.395-6.662-29.263-17.253-38.875 8.601-3.164 14.753-11.439 14.753-21.125 0-10.136-6.736-18.727-15.967-21.533-2.806-9.231-11.397-15.967-21.533-15.967-4.525 0-8.855 1.351-12.5 3.79-3.645-2.438-7.975-3.79-12.5-3.79-10.136 0-18.727 6.736-21.533 15.967-9.23 2.806-15.967 11.397-15.967 21.533 0 9.686 6.152 17.961 14.753 21.125-10.591 9.612-17.253 23.48-17.253 38.875zm90 0c0 20.678-16.822 37.5-37.5 37.5s-37.5-16.822-37.5-37.5 16.822-37.5 37.5-37.5 37.5 16.822 37.5 37.5zm-65-52.5c-4.136 0-7.5-3.364-7.5-7.5s3.364-7.5 7.5-7.5c4.142 0 7.5-3.358 7.5-7.5 0-4.136 3.364-7.5 7.5-7.5 2.516 0 4.853 1.258 6.252 3.364 1.39 2.093 3.735 3.351 6.248 3.351s4.858-1.258 6.248-3.351c1.399-2.106 3.736-3.364 6.252-3.364 4.136 0 7.5 3.364 7.5 7.5 0 4.142 3.358 7.5 7.5 7.5 4.136 0 7.5 3.364 7.5 7.5s-3.364 7.5-7.5 7.5z"/></g></svg>