<svg id="Layer_1" enable-background="new 0 0 256 256" height="74" viewBox="0 0 256 256" width="74" xmlns="http://www.w3.org/2000/svg"><g><path d="m113.238 218.021v-68.152c-4.703-3.306-10.21-5.067-15.998-5.067h-8.681v2.646c0 6.933-5.258 12.656-11.995 13.406v69.688h43.061c-3.863-2.826-6.387-7.379-6.387-12.521z" fill="#cecece"/><path d="m61.569 147.448v-2.646h-8.681c-15.377.001-27.888 12.511-27.888 27.889v57.851h18.717v-56.294c0-.828.671-1.5 1.5-1.5s1.5.672 1.5 1.5v56.294h26.847v-69.688c-6.737-.75-11.995-6.473-11.995-13.406z" fill="#cecece"/><g><path d="m67.556 143.303h-14.666c-16.231 0-29.388 13.157-29.388 29.388v59.351h14.667v-59.351c-.001-16.231 13.157-29.388 29.387-29.388z" fill="#afafaf"/></g><path d="m144.05 149.209h-29.31v68.812c0 7.744 6.277 14.021 14.021 14.021h1.268c7.744 0 14.021-6.277 14.021-14.021z" fill="#cecece"/><path d="m129.395 149.209v68.812c0 5.32-2.963 9.947-7.328 12.323 1.989 1.083 4.269 1.698 6.693 1.698h1.268c7.744 0 14.021-6.277 14.021-14.021v-68.812z" fill="#e2e2e2"/><path d="m118.442 149.209v-6.881c0-8.082 6.551-14.633 14.633-14.633h14.459l16.12-2.931c2.756-.501 5.18 1.874 4.734 4.64l-.069.431c-1.008 6.247-5.188 11.521-11.039 13.929l-13.229 5.444h-25.609z" fill="#f8af23"/><path d="m163.653 124.764-10.464 1.902c.473.782.694 1.733.531 2.738l-.069.431c-1.007 6.247-5.188 11.521-11.039 13.929l-13.229 5.444h14.667l13.229-5.444c5.851-2.408 10.031-7.683 11.039-13.929l.07-.431c.445-2.765-1.978-5.141-4.735-4.64z" fill="#f8d323"/><path d="m75.066 159.443c-6.625 0-11.995-5.37-11.995-11.995v-19.125c0-6.625 5.37-11.995 11.995-11.995 6.625 0 11.995 5.37 11.995 11.995v19.125c-.001 6.624-5.371 11.995-11.995 11.995z" fill="#f8af23"/><path d="m63.071 128.322v19.125c0 5.9 4.263 10.794 9.875 11.797v-42.719c-5.612 1.003-9.875 5.898-9.875 11.797z" fill="#f87023"/><g><circle cx="35.392" cy="88.319" fill="#f87023" r="7.978"/><circle cx="114.739" cy="88.319" fill="#f8af23" r="7.978"/></g><path d="m76.782 136.562h-3.433c-20.963 0-37.958-16.994-37.958-37.958v-18.061c0-20.963 16.994-37.958 37.958-37.958h3.433c20.963 0 37.958 16.994 37.958 37.958v18.061c-.001 20.963-16.995 37.958-37.958 37.958z" fill="#f8af23"/><path d="m50.058 98.604v-18.061c0-19.055 14.041-34.826 32.341-37.541-1.833-.272-3.708-.417-5.617-.417h-3.433c-20.963 0-37.958 16.994-37.958 37.958v18.061c0 20.963 16.994 37.958 37.958 37.958h3.433c1.909 0 3.784-.145 5.617-.417-18.3-2.715-32.341-18.487-32.341-37.541z" fill="#f87023"/><path d="m72.489 78.717c-6.382-1.468-17.665-5.232-17.665-5.232-1.74-.493-3.575.382-4.287 2.044l-1.316 3.07c-2.273 5.303-6.221 9.714-11.241 12.558l-2.588 1.464-6.279-24.186c-2.512-9.775-.419-20.163 5.684-28.202l3.902-5.14c3.572-4.706 8.761-7.921 14.564-9.027 0 0 13.185-2.941 19.825-3.904 1.124-.163 2.953-.146 4.075.023 5.933.894 17.059 3.376 17.059 3.376 7.508 1.43 14.22 5.59 18.841 11.678l2.272 2.993c6.103 8.039 8.196 18.426 5.684 28.202l-6.279 24.186-2.588-1.464c-5.02-2.844-8.968-7.255-11.241-12.558l-1.316-3.07c-.712-1.662-2.548-2.537-4.287-2.044 0 0-11.284 3.763-17.665 5.232-1.419.327-3.736.327-5.154.001z" fill="#707070"/><g><path d="m49.463 40.233 3.902-5.14c3.572-4.706 8.761-7.922 14.564-9.027 0 0 7.781-1.735 14.398-2.977-1.876-.358-3.682-.681-5.165-.904-1.123-.169-2.952-.186-4.075-.023-6.64.962-19.825 3.904-19.825 3.904-5.804 1.105-10.992 4.321-14.564 9.027l-3.902 5.14c-6.103 8.039-8.196 18.427-5.684 28.202l6.279 24.186 2.588-1.464c3.843-2.177 7.05-5.277 9.365-8.988l-3.565-13.734c-2.512-9.775-.419-20.163 5.684-28.202z" fill="#5b5b5b"/></g><g fill="#3f3679"><circle cx="59.29" cy="100.906" r="3.842"/><circle cx="90.841" cy="100.906" r="3.842"/></g><path d="m222.498 113.755h-61.177c-5.523 0-10-4.477-10-10v-76.706c0-5.523 4.477-10 10-10h61.177c5.523 0 10 4.477 10 10v76.706c0 5.523-4.477 10-10 10z" fill="#cecece"/><g><path d="m222.498 17.049h-14.667c5.523 0 10 4.477 10 10v76.706c0 5.523-4.477 10-10 10h14.667c5.523 0 10-4.477 10-10v-76.706c0-5.522-4.477-10-10-10z" fill="#e2e2e2"/></g><path d="m159.053 28.005h65.75v44.25h-65.75z" fill="#63bce7"/><g><path d="m210.137 28.005h14.667v44.25h-14.667z" fill="#63e2e7"/></g><g fill="#f8af23"><path d="m159.224 81.024h15.192v8.875h-15.192z"/><path d="m184.417 81.024h15.192v8.875h-15.192z"/><path d="m209.611 81.024h15.192v8.875h-15.192z"/></g><path d="m210.497 46.919c0 11.803-11.121 21.058-23.435 17.836-8.238-2.155-13.67-9.648-13.529-18.162.053-3.173.877-6.163 2.453-8.892l13.396-23.198c1.17-2.026 4.093-2.026 5.263 0l13.396 23.198c1.63 2.823 2.456 5.924 2.456 9.218z" fill="#f46275"/><path d="m181.285 102.774h21.25v50h-21.25z" fill="#cecece"/><g fill="#3f3679"><path d="m27.323 241.516h-18.003c-.829 0-1.5.672-1.5 1.5s.671 1.5 1.5 1.5h18.003c.829 0 1.5-.672 1.5-1.5s-.671-1.5-1.5-1.5z"/><path d="m246.68 241.516h-18.003c-.828 0-1.5.672-1.5 1.5s.672 1.5 1.5 1.5h18.003c.828 0 1.5-.672 1.5-1.5s-.672-1.5-1.5-1.5z"/><path d="m218.479 241.516h-180.958c-.829 0-1.5.672-1.5 1.5s.671 1.5 1.5 1.5h180.959c.828 0 1.5-.672 1.5-1.5s-.672-1.5-1.501-1.5z"/><path d="m9.32 233.542h14.182 51.564 51.564 2.131 1.268 116.651c.828 0 1.5-.672 1.5-1.5s-.672-1.5-1.5-1.5h-107.518c3.863-2.826 6.387-7.379 6.387-12.521v-67.808l12.301-5.062c6.288-2.588 10.866-8.365 11.947-15.075l.07-.434c.287-1.779-.311-3.594-1.598-4.855-1.285-1.261-3.109-1.824-4.886-1.499l-15.986 2.906h-14.323c-8.896 0-16.133 7.237-16.133 16.134v5.381h-1.555c-5.301-3.857-11.562-5.906-18.146-5.906h-8.681v-5.538c16.021-5.022 27.679-20.005 27.679-37.661v-.928c4.547-.72 7.978-4.65 7.978-9.356 0-3.371-1.823-6.469-4.694-8.158l2.947-11.353c2.643-10.281.477-21.027-5.942-29.482l-2.272-2.993c-4.854-6.394-11.87-10.742-19.709-12.234-.457-.102-11.246-2.504-17.163-3.396-1.288-.195-3.271-.204-4.513-.023-6.621.959-19.396 3.803-19.891 3.914-6.178 1.177-11.675 4.584-15.478 9.594l-3.902 5.14c-6.418 8.456-8.584 19.202-5.94 29.486l2.946 11.35c-2.902 1.699-4.694 4.756-4.694 8.157 0 4.714 3.464 8.625 7.978 9.347v.937c0 17.656 11.658 32.64 27.679 37.661v5.538h-8.678c-17.032 0-30.888 13.856-30.888 30.889v57.851h-12.682c-.829 0-1.5.672-1.5 1.5s.671 1.497 1.5 1.497zm133.23-15.521c0 6.904-5.617 12.521-12.521 12.521h-1.268c-6.904 0-12.521-5.616-12.521-12.521v-67.313h2.203 24.108v67.313zm-22.608-75.693c0-7.242 5.892-13.134 13.133-13.134h14.459c.09 0 .18-.008.269-.024l16.119-2.931c.826-.149 1.646.101 2.249.69.602.59.87 1.404.736 2.233l-.07.434c-.917 5.689-4.798 10.587-10.129 12.781l-12.955 5.331h-23.811zm-22.701 2.475c5.788 0 11.295 1.761 15.998 5.067v68.152c0 5.142 2.524 9.695 6.387 12.521h-43.061v-69.688c6.737-.749 11.995-6.473 11.995-13.406v-2.646zm23.976-56.484c0 3.052-2.11 5.623-4.978 6.3v-1.808l2.487-9.578c1.541 1.214 2.491 3.078 2.491 5.086zm-85.226-47.178 3.902-5.14c3.354-4.418 8.201-7.423 13.696-8.471.131-.029 13.206-2.94 19.714-3.883.457-.066 1.07-.099 1.697-.099.697 0 1.41.04 1.939.12 5.813.876 16.845 3.333 17.002 3.367 7.156 1.362 13.522 5.309 17.927 11.111l2.272 2.993c5.861 7.72 7.839 17.533 5.427 26.918l-5.789 22.295-.887-.502c-4.706-2.666-8.471-6.872-10.602-11.844l-1.315-3.069c-1.006-2.348-3.619-3.593-6.141-2.876-.112.037-11.29 3.758-17.527 5.192-1.194.275-3.287.275-4.479 0h-.001c-6.239-1.433-17.416-5.153-17.594-5.211-2.456-.694-5.069.548-6.075 2.896l-1.316 3.069c-2.13 4.971-5.895 9.177-10.601 11.843l-.888.503-5.787-22.291c-2.413-9.388-.435-19.201 5.426-26.921zm-7.077 47.178c0-2.029.936-3.877 2.49-5.09l2.488 9.582v1.803c-2.85-.679-4.978-3.24-4.978-6.295zm7.978 10.285v-5.108l1.827-1.035c5.274-2.987 9.493-7.7 11.88-13.271l1.316-3.069c.414-.965 1.488-1.475 2.434-1.212.463.154 11.425 3.804 17.804 5.271 1.634.376 4.192.377 5.827 0 6.378-1.467 17.34-5.116 17.738-5.25 1.009-.288 2.085.226 2.5 1.191l1.315 3.069c2.388 5.571 6.607 10.284 11.881 13.272l1.826 1.034v5.108c0 20.103-16.355 36.458-36.458 36.458h-3.433c-20.102 0-36.457-16.356-36.457-36.458zm36.457 39.458h3.433c3.018 0 5.953-.352 8.779-.997v10.383c0 5.786-4.708 10.494-10.495 10.494s-10.495-4.708-10.495-10.494v-10.383c2.825.644 5.76.997 8.778.997zm-20.459 6.741h8.681v2.646c0 6.933 5.258 12.656 11.995 13.406v69.688h-26.847v-56.294c0-.828-.671-1.5-1.5-1.5s-1.5.672-1.5 1.5v56.294h-18.718v-57.851c0-15.379 12.511-27.889 27.889-27.889z"/><path d="m75.065 111.795c.829 0 1.5-.672 1.5-1.5v-6.432c0-.828-.671-1.5-1.5-1.5s-1.5.672-1.5 1.5v6.432c0 .828.672 1.5 1.5 1.5z"/><path d="m82.411 119.744c.546-.623.484-1.571-.139-2.117-.623-.547-1.57-.483-2.117.139-1.291 1.473-3.146 2.316-5.09 2.316s-3.799-.844-5.09-2.316c-.546-.623-1.494-.687-2.117-.139-.623.546-.685 1.494-.139 2.117 1.86 2.121 4.538 3.338 7.346 3.338s5.486-1.217 7.346-3.338z"/><path d="m64.374 90.699h-10.167c-.829 0-1.5.672-1.5 1.5s.671 1.5 1.5 1.5h10.167c.829 0 1.5-.672 1.5-1.5s-.672-1.5-1.5-1.5z"/><path d="m85.758 93.699h10.167c.829 0 1.5-.672 1.5-1.5s-.671-1.5-1.5-1.5h-10.167c-.829 0-1.5.672-1.5 1.5s.671 1.5 1.5 1.5z"/><path d="m161.321 115.255h18.464v37.519c0 .828.672 1.5 1.5 1.5h21.25c.828 0 1.5-.672 1.5-1.5v-37.519h18.463c6.341 0 11.5-5.159 11.5-11.5v-76.705c0-6.341-5.159-11.5-11.5-11.5h-25.517l-1.037-1.796c-.82-1.421-2.29-2.27-3.931-2.27s-3.11.849-3.931 2.27l-1.037 1.796h-25.725c-6.341 0-11.5 5.159-11.5 11.5v76.705c.001 6.341 5.16 11.5 11.501 11.5zm39.714 20.198h-18.25v-31.18h18.25zm-18.25 15.82v-12.82h18.25v12.82zm9.229-136.789c.268 0 .932.075 1.333.77l13.396 23.198c1.496 2.59 2.255 5.438 2.255 8.467 0 5.297-2.415 10.199-6.626 13.449-4.205 3.247-9.646 4.317-14.93 2.936-7.437-1.945-12.539-8.807-12.409-16.685.048-2.916.806-5.663 2.252-8.167l13.396-23.198c.401-.694 1.065-.77 1.333-.77zm-5.332 51.722c1.768.462 3.551.689 5.312.689 4.407 0 8.677-1.424 12.212-4.152 4.952-3.823 7.792-9.591 7.792-15.824 0-3.562-.894-6.915-2.657-9.967l-4.3-7.446h18.264v41.25h-62.75v-41.25h18.433l-4.3 7.446c-1.704 2.949-2.597 6.186-2.654 9.617-.155 9.265 5.869 17.34 14.648 19.637zm-33.861-39.156c0-4.687 3.813-8.5 8.5-8.5h23.992l-4.594 7.956h-21.665c-.828 0-1.5.672-1.5 1.5v44.25c0 .828.672 1.5 1.5 1.5h65.75c.828 0 1.5-.672 1.5-1.5v-44.25c0-.828-.672-1.5-1.5-1.5h-21.496l-4.594-7.956h23.784c4.687 0 8.5 3.813 8.5 8.5v76.705c0 4.687-3.813 8.5-8.5 8.5h-18.463v-7.981h5.915c.828 0 1.5-.672 1.5-1.5s-.672-1.5-1.5-1.5h-7.415-21.25-7.416c-.828 0-1.5.672-1.5 1.5s.672 1.5 1.5 1.5h5.916v7.981h-18.464c-4.687 0-8.5-3.813-8.5-8.5z"/><path d="m159.224 91.398h15.192c.828 0 1.5-.672 1.5-1.5v-8.875c0-.828-.672-1.5-1.5-1.5h-15.192c-.828 0-1.5.672-1.5 1.5v8.875c0 .829.672 1.5 1.5 1.5zm1.5-8.875h12.192v5.875h-12.192z"/><path d="m184.417 91.398h15.192c.828 0 1.5-.672 1.5-1.5v-8.875c0-.828-.672-1.5-1.5-1.5h-15.192c-.828 0-1.5.672-1.5 1.5v8.875c0 .829.672 1.5 1.5 1.5zm1.5-8.875h12.192v5.875h-12.192z"/><path d="m209.611 91.398h15.192c.828 0 1.5-.672 1.5-1.5v-8.875c0-.828-.672-1.5-1.5-1.5h-15.192c-.828 0-1.5.672-1.5 1.5v8.875c0 .829.672 1.5 1.5 1.5zm1.5-8.875h12.192v5.875h-12.192z"/></g><circle cx="191.91" cy="145.12" fill="#3f3679" r="1.917"/></g></svg>