<svg id="Layer_1" enable-background="new 0 0 516.559 516.559" height="74" viewBox="0 0 516.559 516.559" width="74" xmlns="http://www.w3.org/2000/svg"><g><path d="m106.85 63.461c-2.764-1.596-6.3-.649-7.896 2.116l-1.286 2.227-3.068-1.771c.857-2.654 1.325-5.482 1.325-8.417 0-2.936-.468-5.763-1.325-8.417l3.068-1.771 1.286 2.227c1.604 2.778 5.145 3.704 7.896 2.115 2.765-1.596 3.712-5.131 2.116-7.896-.994-1.721-5.995-10.384-8.352-14.466-1.596-2.765-5.131-3.712-7.896-2.116s-3.712 5.131-2.116 7.896l1.286 2.227-3.077 1.777c-3.792-4.184-8.854-7.194-14.57-8.424v-3.541h2.572c3.192 0 5.78-2.588 5.78-5.78s-2.588-5.78-5.78-5.78h-16.704c-3.192 0-5.78 2.588-5.78 5.78s2.588 5.78 5.78 5.78h2.572v3.541c-5.716 1.23-10.778 4.239-14.57 8.424l-3.077-1.777 1.286-2.227c1.596-2.765.649-6.3-2.116-7.896-2.764-1.596-6.299-.649-7.896 2.116l-8.352 14.466c-1.596 2.765-.649 6.3 2.116 7.896.91.526 1.904.776 2.885.776 1.998 0 3.941-1.037 5.011-2.891l1.286-2.227 3.068 1.771c-.857 2.654-1.325 5.482-1.325 8.417 0 2.936.468 5.763 1.325 8.417l-3.068 1.771-1.286-2.227c-1.597-2.765-5.132-3.712-7.896-2.116-2.765 1.596-3.712 5.131-2.116 7.896l8.352 14.466c1.604 2.778 5.145 3.704 7.896 2.116 2.765-1.596 3.712-5.131 2.116-7.896l-1.286-2.227 3.077-1.777c3.792 4.184 8.854 7.194 14.569 8.423v3.542h-2.572c-3.192 0-5.78 2.588-5.78 5.78s2.588 5.78 5.78 5.78h16.704c3.192 0 5.78-2.588 5.78-5.78s-2.588-5.78-5.78-5.78h-2.572v-3.542c5.716-1.229 10.778-4.239 14.57-8.423l3.077 1.777-1.286 2.227c-1.596 2.765-.649 6.299 2.116 7.896 2.755 1.591 6.294.658 7.896-2.116 2.991-5.181 5.362-9.287 8.352-14.466 1.597-2.765.649-6.3-2.115-7.896zm-38.389 10.058c-8.769 0-15.904-7.135-15.904-15.904s7.134-15.904 15.904-15.904 15.904 7.134 15.904 15.904-7.135 15.904-15.904 15.904z" fill="#a5c8cd"/><g id="XMLID_7199_"><path d="m259.617 516.559c-14.2 0-25.712-11.512-25.712-25.712v-205.521c0-14.201 11.512-25.712 25.712-25.712s25.712 11.512 25.712 25.712v205.521c0 14.2-11.512 25.712-25.712 25.712z" fill="#414b82"/></g><g id="XMLID_7201_"><path d="m197.547 516.559c-14.201 0-25.712-11.512-25.712-25.712v-205.521c0-14.201 11.512-25.712 25.712-25.712s25.712 11.512 25.712 25.712v205.521c0 14.2-11.511 25.712-25.712 25.712z" fill="#5f6e9b"/></g><path d="m119.618 180.591v107.37c0 11.833 9.593 21.427 21.427 21.427s21.427-9.593 21.427-21.427v-107.37l-21.427-15.117z" fill="#ffb69e"/><path d="m331.553 165.474 39.247 5.602c-.355-.801-.751-1.59-1.209-2.354l-37.839-63.058c-9.203-15.339-26.033-24.948-43.922-25.076-45.588-.397-74.123-.796-117.111-.602-28.038 0-50.961 22.632-51.102 50.451v50.153h42.854v-49.977c.044-4.218 3.812-7.774 8.248-7.774h1.115v162.485h113.494v-161.9l2.194.016c3.048.022 5.915 1.659 7.483 4.272l14.267 23.774z" fill="#64afff"/><g><path d="m464.486 52.835c-2.881-5-7.878-8.016-13.239-8.016-.264 0-.522.026-.783.04l-14.679-18.8v-26.059h-13.623v27.063l-13.832 16.978c-.537-.061-1.079-.1-1.63-.1-5.361 0-10.358 3.016-13.239 8.016-10.27 17.826-32.699 60.287-22.126 74.37 8.766 11.676 42.192 3.805 48.975-7.628 6.256-10.545 4.068-40.901 1.984-59.529-.312-2.793-1.22-5.357-2.562-7.558l9.56-11.733 9.342 11.967c-1.572 2.338-2.639 5.13-2.983 8.202-2.084 18.628-4.271 48.984 1.984 59.529 6.782 11.433 40.209 19.304 48.975 7.628 10.575-14.084-11.854-56.544-22.124-74.37z" fill="#fa968c"/></g><g id="XMLID_7182_"><path d="m351.245 201.177c-1.103 0-2.219-.085-3.343-.261l-91.602-14.35c-11.691-1.831-19.684-12.793-17.853-24.485 1.831-11.69 12.788-19.685 24.485-17.852l91.602 14.35c11.691 1.832 19.684 12.793 17.853 24.485-1.655 10.566-10.772 18.113-21.142 18.113z" fill="#ffb69e"/></g><ellipse cx="228.348" cy="48.159" fill="#ffb69e" rx="44.408" ry="44.408" transform="matrix(.998 -.071 .071 .998 -2.839 16.308)"/></g></svg>