<svg height="79" viewBox="0 0 512 512" width="79" xmlns="http://www.w3.org/2000/svg"><g id="filled_outline" data-name="filled outline"><path d="m351.536 152a24 24 0 0 0 -23.536 24v-39.46c0-13.455-11.011-24.791-24.464-24.536a24 24 0 0 0 -23.536 23.996v-23.46c0-13.455-11.011-24.791-24.464-24.54a24 24 0 0 0 -23.536 24v32a24 24 0 0 0 -23.536-24c-13.453-.251-24.464 11.085-24.464 24.54v115.534l-29.046-22.287a28 28 0 0 0 -39.259 5.17 28 28 0 0 0 5.169 39.259l45.4 34.833a63.883 63.883 0 0 1 22.1 31.62 96.034 96.034 0 0 0 91.473 67.331c52.892.088 96.163-44.284 96.163-97.176v-142.284c0-13.455-11.011-24.791-24.464-24.54z" fill="#f6bb92"/><g fill="#e6a98d"><path d="m232 264a8 8 0 0 1 -8-8v-128a8 8 0 0 1 16 0v128a8 8 0 0 1 -8 8z"/><path d="m280 264a8 8 0 0 1 -8-8v-128a8 8 0 0 1 16 0v128a8 8 0 0 1 -8 8z"/><path d="m328 264a8 8 0 0 1 -8-8v-96a8 8 0 0 1 16 0v96a8 8 0 0 1 -8 8z"/></g><path d="m91.951 91.951c-90.6 90.6-90.6 237.5 0 328.1s237.5 90.6 328.1 0 90.6-237.5 0-328.1-237.498-90.601-328.1 0zm22.628 305.47c-74.3-74.3-77.913-192.5-10.863-271.078l281.941 281.941c-78.579 67.05-196.782 63.433-271.078-10.863zm293.705-11.764-281.941-281.941c78.579-67.05 196.782-63.434 271.078 10.863s77.913 192.499 10.863 271.078z" fill="#f55648"/><path d="m109.373 120.686a8 8 0 0 0 -11.743.464 208 208 0 0 0 150.585 342.7q3.925.146 7.839.146a207.159 207.159 0 0 0 134.8-49.628 8 8 0 0 0 .464-11.743zm78.165 146.563a8 8 0 0 0 4.462-7.175v-34.134l152.8 152.8a87.747 87.747 0 0 1 -64.811 29.26h-.138a87.63 87.63 0 0 1 -83.851-61.717 71.513 71.513 0 0 0 -24.867-35.583l-45.4-34.833a20 20 0 1 1 24.349-31.735l29.047 22.287a8 8 0 0 0 8.409.83zm61.272 180.614a192.017 192.017 0 0 1 -144.49-309.6l71.68 71.677v33.913l-16.177-12.413a36 36 0 1 0 -43.829 57.122l45.4 34.834a55.608 55.608 0 0 1 19.333 27.659 104.035 104.035 0 0 0 99.096 72.945h.166a103.78 103.78 0 0 0 76.136-33.934l17.614 17.614a191.337 191.337 0 0 1 -124.929 40.183z"/><path d="m256 16a240 240 0 0 0 -169.706 409.706 240 240 0 0 0 339.412-339.412 238.43 238.43 0 0 0 -169.706-70.294zm158.392 398.392a224 224 0 0 1 -316.784-316.784 224 224 0 0 1 316.784 316.784z"/><path d="m263.785 48.148a207.215 207.215 0 0 0 -142.635 49.482 8 8 0 0 0 -.464 11.743l281.941 281.941a8 8 0 0 0 5.657 2.343c.105 0 .21 0 .316-.006a8 8 0 0 0 5.77-2.8 208 208 0 0 0 -150.585-342.7zm-39.785 141.912-32-32v-13.52a16.88 16.88 0 0 1 5.055-11.963 15.51 15.51 0 0 1 11.257-4.577 16.075 16.075 0 0 1 15.688 16zm48-54.06v102.06l-32-32v-94.06a16.075 16.075 0 0 1 15.688-16 15.529 15.529 0 0 1 11.257 4.573 16.88 16.88 0 0 1 5.055 11.967zm96 182.824a88.452 88.452 0 0 1 -1.137 14.1l-78.863-78.864v-118.06a16.075 16.075 0 0 1 15.688-16 15.607 15.607 0 0 1 11.257 4.573 16.88 16.88 0 0 1 5.055 11.967v119.46a8 8 0 0 0 16 0v-80a16.075 16.075 0 0 1 15.688-16 15.531 15.531 0 0 1 11.257 4.573 16.88 16.88 0 0 1 5.055 11.967zm39.68 54.915-27.78-27.781.482.13a104.49 104.49 0 0 0 3.618-27.264v-142.284a32.972 32.972 0 0 0 -9.85-23.384 31.469 31.469 0 0 0 -22.161-9.156q-.3 0-.6 0a31.619 31.619 0 0 0 -15.389 4.336v-11.8a32.972 32.972 0 0 0 -9.85-23.384 31.469 31.469 0 0 0 -22.161-9.152q-.3 0-.6 0a31.639 31.639 0 0 0 -15.643 4.481 33.049 33.049 0 0 0 -9.592-19.331 31.469 31.469 0 0 0 -22.165-9.15q-.3 0-.6 0a32.158 32.158 0 0 0 -31.389 32v4.335a31.5 31.5 0 0 0 -38.15 4.821 33.02 33.02 0 0 0 -9.751 21l-37.838-37.836a192.017 192.017 0 0 1 269.419 269.419z"/></g></svg>