<svg id="Layer_1" enable-background="new 0 0 509.514 509.514" height="74" viewBox="0 0 509.514 509.514" width="74" xmlns="http://www.w3.org/2000/svg"><g><path d="m348.949 96.055-.75 3.995c-2.551 13.596 7.879 26.166 21.713 26.166 13.44 0 23.766-11.9 21.871-25.206l-.706-4.955z" fill="#80391b"/><g id="XMLID_5281_"><path d="m400.499 509.514c-13.403 0-24.268-10.865-24.268-24.268v-193.977c0-13.403 10.865-24.268 24.268-24.268s24.268 10.865 24.268 24.268v193.977c0 13.403-10.865 24.268-24.268 24.268z" fill="#55696e"/></g><g id="XMLID_5286_"><path d="m341.916 509.514c-13.403 0-24.268-10.865-24.268-24.268v-193.977c0-13.403 10.865-24.268 24.268-24.268s24.268 10.865 24.268 24.268v193.977c0 13.403-10.865 24.268-24.268 24.268z" fill="#748488"/></g><path d="m452.765 114.133c-5.108-11.151-15.9-18.078-28.165-18.078h-33.522c.32 11.256-10.149 20.787-21.08 20.787-11.715 0-20.404-9.496-21.049-20.787h-151.345c-11.169 0-20.223 9.054-20.223 20.224 0 11.169 9.054 20.223 20.223 20.223h120.043v153.359h107.119v-115.591l23.292-27.002c8.011-9.288 9.815-21.984 4.707-33.135z" fill="#e64937"/><g><path d="m113.188 509.514c-5.523 0-10-4.477-10-10v-230.526c0-8.08-6.573-14.653-14.653-14.653s-14.653 6.573-14.653 14.653v31.634c0 5.523-4.477 10-10 10s-10-4.477-10-10v-31.634c0-19.108 15.545-34.653 34.653-34.653s34.653 15.545 34.653 34.653v230.526c0 5.523-4.477 10-10 10z" fill="#b05f3f"/></g><g id="XMLID_5275_"><path d="m158.997 509.514c-13.351 0-24.179-10.823-24.179-24.174v-195.614c0-13.351 10.828-24.174 24.179-24.174s24.174 10.823 24.174 24.174v195.614c0 13.351-10.823 24.174-24.174 24.174z" fill="#5f6e9b"/></g><g id="XMLID_5279_"><path d="m217.783 509.514c-13.351 0-24.174-10.823-24.174-24.174v-196.228c0-13.351 10.823-24.174 24.174-24.174s24.121 10.823 24.121 24.174v196.228c0 13.351-10.77 24.174-24.121 24.174z" fill="#414b82"/></g><g><path d="m250.25 186.169v105.521c.056 11.092 9.507 20.044 20.586 20.044h.104c11.126-.056 19.356-9.12 19.301-20.246v-105.319l-19.995-9.522z" fill="#faab91"/><path d="m97.641 173.176 10.111-8.446-4.819-21.387-21.251-9.515-18.767 15.859c-5.506 4.6-8.15 11.782-6.941 18.854l14.814 86.651c1.865 10.913 12.232 18.345 23.252 16.462 10.967-1.875 18.337-12.285 16.462-23.252z" fill="#ffb69e"/><path d="m242.567 96.055h-108.15c-4.721 0-9.293 1.658-12.916 4.686l-39.82 33.088 26.07 30.902 27.066-22.61v146.992h107.086v-152.768c4.051 0 8.326 3.295 8.346 7.346v42.478h39.99v-42.681c-.13-26.155-21.516-47.433-47.672-47.433z" fill="#64afff"/></g><ellipse cx="370.719" cy="41.914" fill="#80391b" rx="41.914" ry="41.913" transform="matrix(.055 -.999 .999 .055 308.369 409.748)"/><circle cx="187.495" cy="69.294" fill="#ffb69e" r="41.752"/><path d="m382.009 161.915-8.24 9.553-86.529 20.712c-10.862 2.6-17.56 13.513-14.959 24.376 2.595 10.841 13.489 17.565 24.375 14.96l92.874-22.231c4.125-.988 7.835-3.247 10.605-6.458l14.723-17.069z" fill="#80391b"/></g></svg>