<svg id="Layer_1" enable-background="new 0 0 256 256" height="74" viewBox="0 0 256 256" width="74" xmlns="http://www.w3.org/2000/svg"><g><g><g><path d="m184.879 110.485-8.501-29.681h-96.756l-8.501 29.681s-12.623 38.703 1.913 60.479c.926 1.388 2.411 2.171 3.96 2.171h37.127 27.758 8.371 28.756c1.548 0 3.033-.783 3.96-2.171 14.535-21.775 1.913-60.479 1.913-60.479z" fill="#87828e"/><path d="m128 148.56c-25.605 0-46.554-20.949-46.554-46.554v-41.62c0-3.462 2.833-6.295 6.295-6.295h80.516c3.462 0 6.295 2.833 6.295 6.295v41.62c.001 25.605-20.948 46.554-46.552 46.554z" fill="#ffbb98"/><path d="m182.97 170.962c-.93 1.39-2.42 2.17-3.96 2.17h-15c1.54 0 3.03-.78 3.96-2.17 14.53-21.77 1.91-60.48 1.91-60.48l-8.5-29.68h15l8.5 29.68s12.62 38.71-1.91 60.48z" fill="#796e84"/><path d="m91.99 173.132h-15c-1.54 0-3.03-.78-3.96-2.17-14.53-21.77-1.91-60.48-1.91-60.48l8.5-29.68h15l-8.5 29.68s-12.62 38.71 1.91 60.48c.93 1.39 2.42 2.17 3.96 2.17z" fill="#a4a4a5"/><path d="m174.55 60.382v41.62c0 25.61-20.95 46.56-46.55 46.56-2.55 0-5.06-.21-7.5-.61 22.07-3.61 39.05-22.89 39.05-45.95v-41.62c0-3.46-2.83-6.29-6.29-6.29h15c3.46 0 6.29 2.83 6.29 6.29z" fill="#ffaa80"/><path d="m135.5 147.952c-2.44.4-4.95.61-7.5.61-25.6 0-46.55-20.95-46.55-46.56v-41.62c0-3.46 2.83-6.29 6.29-6.29h15c-3.46 0-6.29 2.83-6.29 6.29v41.62c0 23.06 16.98 42.34 39.05 45.95z" fill="#ffcaa6"/><path d="m138.333 5.668h-8.587-3.25-8.829c-26.512 0-48.004 21.492-48.004 48.004v22.125c0 2.748 2.223 4.981 4.971 5.004 40.648.333 48.405-19.037 52.417-35.521 3.955 16.512 11.072 35.302 54.251 35.451 2.773.01 5.036-2.23 5.036-5.003v-22.056c-.001-26.512-21.493-48.004-48.005-48.004z" fill="#87828e"/><path d="m186.34 53.672v22.06c0 2.77-2.27 5.01-5.04 5-4.56-.01-8.72-.24-12.51-.65 1.52-.86 2.55-2.49 2.55-4.35v-22.06c0-26.51-21.49-48-48.01-48h15c26.52 0 48.01 21.49 48.01 48z" fill="#796e84"/><path d="m84.66 53.672v22.13c0 1.88 1.05 3.52 2.59 4.38-3.81.44-8 .66-12.62.62-2.74-.02-4.97-2.26-4.97-5v-22.13c0-26.51 21.49-48 48.01-48h15c-26.52 0-48.01 21.49-48.01 48z" fill="#a4a4a5"/><path d="m203.76 239.362v.97c0 5.53-4.48 10-10 10h-131.52c-5.52 0-10-4.47-10-10v-.97c0-24.04 11.19-45.47 28.65-59.34 1.18-.94 2.38-1.84 3.61-2.7 12.31-8.65 27.3-13.73 43.49-13.73h.02c16.19 0 31.18 5.08 43.49 13.73 1.23.86 2.44 1.76 3.61 2.7 2.26 1.79 4.42 3.72 6.46 5.76 12.08 12.08 20.1 28.22 21.83 46.21.24 2.43.36 4.88.36 7.37z" fill="#ffe2e2"/><path d="m203.76 239.362v.97c0 5.53-4.48 10-10 10h-5.95l-2.91-2.11c2.35-1.83 3.86-4.68 3.86-7.89v-.97c0-2.49-.12-4.94-.36-7.37-.41-4.29-1.18-8.48-2.28-12.53-3.51-12.93-10.35-24.48-19.55-33.68-2.04-2.04-4.2-3.97-6.46-5.76-1.17-.94-2.38-1.84-3.61-2.7-10.39-7.3-22.68-12.06-36-13.36 2.46-.25 4.96-.37 7.49-.37h.02c16.19 0 31.18 5.08 43.49 13.73 1.23.86 2.44 1.76 3.61 2.7 2.26 1.79 4.42 3.72 6.46 5.76 12.08 12.08 20.1 28.22 21.83 46.21.24 2.43.36 4.88.36 7.37z" fill="#ffcfcf"/><path d="m135.5 163.962c-13.32 1.3-25.61 6.06-36 13.36-1.23.86-2.43 1.76-3.61 2.7-17.46 13.87-28.65 35.3-28.65 59.34v.97c0 5.53 4.48 10 10 10h-15c-5.52 0-10-4.47-10-10v-.97c0-24.04 11.19-45.47 28.65-59.34 1.18-.94 2.38-1.84 3.61-2.7 12.31-8.65 27.3-13.73 43.49-13.73h.02c2.53 0 5.03.12 7.49.37z" fill="#ffefee"/><path d="m136.13 184.102-66.24 66.23h-7.65c-5.52 0-10-4.47-10-10v-.97c0-1.86.07-3.7.21-5.53l66.7-66.71c4.69-4.68 12.29-4.68 16.97 0l.01.01c4.68 4.68 4.68 12.28 0 16.97z" fill="#ffe2e2"/><path d="m135.14 166.242c-.34.27-.67.56-.99.88l-14.45 14.46-65.15 65.15c-1.44-1.72-2.31-3.96-2.31-6.4v-.97c0-1.86.07-3.7.21-5.53l66.7-66.71c4.38-4.37 11.28-4.66 15.99-.88z" fill="#ffefee"/><path d="m203.76 239.362v.97c0 5.53-4.48 10-10 10h-5.95l-2.91-2.11-50.22-36.39c-5.36-3.89-6.56-11.4-2.68-16.75l.01-.02c3.89-5.36 11.39-6.55 16.76-2.67l37.35 27.07 17.28 12.53c.24 2.43.36 4.88.36 7.37z" fill="#ffe2e2"/><path d="m203.76 239.362v.97c0 2.06-.62 3.97-1.69 5.56l-13.67-9.9-54.68-39.63c-.59-.43-1.21-.8-1.85-1.09.04-.06.07-.12.12-.17 0-.01 0-.01.01-.02l.01-.02c3.89-5.36 11.39-6.55 16.76-2.67l54.63 39.6c.24 2.43.36 4.88.36 7.37z" fill="#ffcfcf"/><path d="m163.1 202.782-7.07 9.75-7.02 9.69-14.33-10.39c-5.3-3.84-6.53-11.23-2.81-16.56.04-.06.07-.12.12-.17 0-.01 0-.01.01-.02l.01-.02c3.89-5.36 11.39-6.55 16.76-2.67z" fill="#ffbb98"/><path d="m163.1 202.782-7.07 9.75-22.31-16.17c-.59-.43-1.21-.8-1.85-1.09.04-.06.07-.12.12-.17 0-.01 0-.01.01-.02l.01-.02c3.89-5.36 11.39-6.55 16.76-2.67z" fill="#ffaa80"/><g><path d="m136.13 184.102-17.984 17.964-16.97-16.97 17.974-17.974c2.8-2.8 6.64-3.92 10.27-3.38.16.03.32.05.47.08.07.01.15.03.23.05.16.03.32.07.48.11.4.1.79.22 1.17.36.13.05.26.1.38.15 1.06.42 2.07 1.01 2.99 1.75.34.27.67.57.98.88l.01.01c4.68 4.68 4.68 12.28 0 16.97z" fill="#ffbb98"/><path d="m135.14 166.242c-.34.27-.67.56-.99.88l-14.45 14.46-11.023 11.014-7.5-7.5 17.974-17.974c2.8-2.8 6.64-3.92 10.27-3.38.16.03.32.05.47.08.07.01.15.03.23.05.16.03.32.07.48.11.4.1.79.22 1.17.36.13.05.26.1.38.15 1.059.42 2.069 1.01 2.989 1.75z" fill="#ffcaa6"/></g></g><path d="m164.645 185.281c-4.944-28.421-3.416-74.742-34.617-81.614-23.421-1.701-34.935 32.755-38.604 46.609-.784 2.96 1.265 5.917 4.31 6.24l6.158.653c5.021.533 9.61 3.085 12.711 7.07l16.199 25.191 28.624 1.69c3.217.188 5.772-2.664 5.219-5.839z" fill="#44c7b6"/><path d="m159.43 191.122-12.12-.72c1.68-1.02 2.71-3 2.34-5.12-4.67-26.79-3.57-69.48-29.56-80.04 3.04-1.24 6.35-1.83 9.94-1.57 31.2 6.87 29.67 53.19 34.62 81.61.55 3.17-2.01 6.03-5.22 5.84z" fill="#3bb2a0"/><path d="m159.43 191.122-28.63-1.69-16.2-25.19c-3.1-3.99-7.69-6.54-12.71-7.07l-6.16-.66c-3.04-.32-5.09-3.28-4.31-6.24 3.67-13.85 15.19-48.31 38.61-46.6.41.09.81.19 1.2.29-12.13 10.22-18.76 30.66-21.38 40.56-.79 2.96 1.26 5.92 4.31 6.24l6.16.66c5.02.53 9.61 3.08 12.71 7.07l16.2 25.19 15.3.9c.04.23.08.47.12.7.55 3.17-2.01 6.03-5.22 5.84z" fill="#4bdbc3"/></g><g fill="#5f266d"><path d="m151.457 30.087c6.691 3.268 11.717 9.244 13.786 16.397.507 1.75 2.105 2.889 3.841 2.889.368 0 .743-.051 1.114-.159 2.122-.614 3.344-2.833 2.73-4.955-2.697-9.318-9.244-17.104-17.962-21.361-1.983-.969-4.379-.146-5.35 1.839-.968 1.986-.145 4.381 1.841 5.35z"/><path d="m166.285 58.688v3.393c0 2.209 1.791 4 4 4s4-1.791 4-4v-3.393c0-2.209-1.791-4-4-4s-4 1.791-4 4z"/><path d="m140.921 98.957c.001 0 .001 0 0 0 .103.063 1.013 1.171 2.828 1.171h14.5c2.209 0 4-1.791 4-4s-1.791-4-4-4h-4.843l3.424-3.424c1.563-1.563 1.563-4.095 0-5.657-1.561-1.562-4.096-1.562-5.656 0l-10.252 10.253c-1.061 1.063-1.521 2.773-.866 4.359.217.523.533.965.865 1.298z"/><path d="m115.073 98.961c.002-.002.004-.003.005-.004 1.557-1.559 1.539-4.116 0-5.657l-10.253-10.253c-1.561-1.562-4.096-1.562-5.656 0-1.563 1.563-1.563 4.095 0 5.657l3.424 3.424h-4.843c-2.209 0-4 1.791-4 4s1.791 4 4 4h14.5c1.034 0 2.101-.447 2.823-1.167z"/><path d="m56.458 137.011c-.472-2.157-2.603-3.53-4.762-3.054l-20.268 4.426c-6.479 1.407-9.159-8.007-2.927-10.229l2.399-.854c2.081-.742 3.167-3.03 2.425-5.111-.741-2.081-3.033-3.165-5.11-2.424l-2.398.854c-6.62 2.359-10.28 9.498-8.332 16.251 1.933 6.703 8.792 10.827 15.651 9.328l20.268-4.426c2.157-.471 3.524-2.603 3.054-4.761z"/><path d="m58.45 152.658c-.466-2.16-2.596-3.53-4.754-3.067l-12.75 2.75c-4.667 1.007-3.919 7.911.84 7.911.795 0 .183.021 13.598-2.841 2.159-.465 3.532-2.593 3.066-4.753z"/><path d="m230.183 120.619-2.398-.855c-2.076-.743-4.369.343-5.11 2.424-.742 2.081.344 4.369 2.425 5.111l2.398.855c6.242 2.224 3.539 11.63-2.927 10.228l-20.268-4.426c-2.158-.471-4.29.896-4.762 3.054-.471 2.158.896 4.29 3.055 4.761 20.791 4.44 20.601 4.733 23.101 4.733 5.815 0 11.147-3.843 12.819-9.635 1.948-6.753-1.713-13.891-8.333-16.25z"/><path d="m215.053 152.342-12.75-2.75c-2.168-.463-4.288.907-4.754 3.067-.466 2.159.907 4.288 3.066 4.753l12.75 2.75c5.253 1.124 6.796-6.719 1.688-7.82z"/><path d="m207.381 231.603c0-.001 0-.002 0-.003v-.001c-2.006-20.823-12.377-40.784-29.486-54.467.345-.075 5.293.7 8.402-3.949 15.252-22.851 3.212-61.378 2.409-63.868l-7.044-24.599c2.276-.085 4.406-.999 6.029-2.616 1.706-1.701 2.646-3.963 2.646-6.371v-22.057c0-28.675-23.329-52.004-52.004-52.004h-20.666c-28.675 0-52.004 23.329-52.004 52.004v22.125c0 4.829 3.859 8.797 8.655 8.987l-7.024 24.529c-.803 2.49-12.843 41.017 2.411 63.871 3.045 4.554 8.13 3.887 8.401 3.946-17.958 14.403-29.662 35.886-29.865 63.2 0 7.72 6.28 14 14 14h131.52c7.72 0 14-6.28 14-14-.003-.154.101-3.874-.378-8.723-.002 0-.002-.002-.002-.004zm-9.497-8.55-38.541-27.937c2.758.119 5.317-1.004 7.094-2.995 3.452-3.866 2.078-7.551 1.375-12.464 15.432 10.292 25.999 25.942 30.072 43.396zm-64.818-37.497c-14.586-21.904-13.927-23.335-18.761-27.312l8.781-23.842c.763-2.073-.299-4.372-2.371-5.136-2.069-.762-4.373.297-5.137 2.371l-8.344 22.655c-3.719-1.278-5.91-1.096-11.08-1.755-.595-.063-1.024-.635-.865-1.237 2.801-10.572 13.558-44.863 34.164-43.662 13.918 3.218 20.51 15.882 24.244 31.268.016.063.027.125.046.187 3.69 15.321 4.536 32.946 6.96 46.875.106.614-.378 1.206-1.043 1.158zm24.447 18.114-9.392 12.962-11.091-8.037c-3.572-2.592-4.375-7.601-1.791-11.165.027-.038.055-.077.081-.117 2.608-3.483 7.564-4.24 11.103-1.683zm-31.819-14.789-7.539 7.538-11.321-11.322 9.998-9.999zm-30.832-60.296c-6.029-7.51-9.412-16.918-9.412-26.583v-17.611c13.818-1.229 24.293-5.217 31.826-12.089 4.541-4.142 7.575-8.978 9.737-13.927 5.424 12.592 16.292 23.565 43.536 25.896v17.731c0 10.579-3.937 20.634-10.95 28.409-11.916-37.669-45.512-43.751-64.737-1.826zm84.782 40.153c-.167.25-.398.394-.635.394h-12.535c-1.164-9.854-2.308-20.021-4.496-29.779 10.353-9.417 16.32-22.557 16.548-36.525l2.507 8.755c.014.045.027.092.042.137.121.369 11.838 37.139-1.431 57.018zm-105.981-92.94v-22.126c0-24.264 19.74-44.004 44.004-44.004h20.666c24.264 0 44.004 19.74 44.004 44.004v22.057c0 .556-.458 1.003-1.018 1.003-.001 0-.003 0-.004 0-2.365-.008-4.607-.074-6.744-.188-.007 0-.014-.002-.021-.002-.003 0-.006.001-.009.001-33.436-1.797-39.778-16.231-43.601-32.194-.43-1.797-2.035-3.065-3.882-3.068-.003 0-.005 0-.008 0-1.845 0-3.45 1.262-3.887 3.054-3.827 15.727-10.982 32.471-47.504 32.471-.79 0-1.996.139-1.996-1.008zm3.327 93.334c-.236 0-.468-.144-.633-.391-11.47-17.185-5.048-46.19 1.115-65.909.213 12.637 5.248 24.853 13.992 34.017-1.729 4.697-3.013 9.031-3.906 12.402-1.412 5.323 2.267 10.66 7.754 11.241 5.063.71 7.396.301 11.023 2.079-5.635 1.579-11.046 3.771-16.194 6.56h-13.151zm33.986.506-52.712 52.721c6.342-26.231 26.986-46.496 52.712-52.721zm-48.736 76.694c-3.309 0-6-2.691-6-6 .006-.602-.03-2.326.103-4.736l44.834-44.842 11.321 11.321-44.264 44.257zm17.307 0 46.318-46.311c-.732 5.629 1.554 11.483 6.467 15.05l43.141 31.261zm114.212 0h-4.652l-34.509-25.006 9.392-12.96 35.558 25.775c.251 3.451.195 4.594.211 6.192 0 3.307-2.691 5.999-6 5.999z"/><circle cx="128" cy="225.335" r="6.25"/><path d="m136.12 138.508c-2.209 0-4 1.791-4 4v24.614c0 2.209 1.791 4 4 4s4-1.791 4-4v-24.614c0-2.209-1.791-4-4-4z"/></g></g></svg>